<?xml version="1.0" encoding="UTF-8"?>
<svg width="700pt" height="700pt" version="1.1" viewBox="0 0 700 700" xmlns="http://www.w3.org/2000/svg" xmlns:xlink="http://www.w3.org/1999/xlink">
 <defs>
  <symbol id="u" overflow="visible">
   <path d="m14.656-0.875c-0.76172 0.39844-1.5547 0.69531-2.375 0.89062-0.8125 0.19531-1.6641 0.29688-2.5469 0.29688-2.6562 0-4.7617-0.73828-6.3125-2.2188-1.5547-1.4883-2.3281-3.5039-2.3281-6.0469 0-2.5508 0.77344-4.5664 2.3281-6.0469 1.5508-1.4883 3.6562-2.2344 6.3125-2.2344 0.88281 0 1.7344 0.10156 2.5469 0.29688 0.82031 0.19922 1.6133 0.49609 2.375 0.89062v3.2969c-0.76172-0.51953-1.5117-0.89844-2.25-1.1406-0.74219-0.23828-1.5234-0.35938-2.3438-0.35938-1.4688 0-2.625 0.46875-3.4688 1.4062-0.83594 0.9375-1.25 2.2344-1.25 3.8906 0 1.6484 0.41406 2.9375 1.25 3.875 0.84375 0.9375 2 1.4062 3.4688 1.4062 0.82031 0 1.6016-0.11719 2.3438-0.35938 0.73828-0.23828 1.4883-0.61719 2.25-1.1406z"/>
  </symbol>
  <symbol id="b" overflow="visible">
   <path d="m10.719-8.7031c-0.33594-0.15625-0.66797-0.26953-1-0.34375-0.32422-0.082031-0.65625-0.125-1-0.125-0.98047 0-1.7344 0.32031-2.2656 0.95312-0.53125 0.625-0.79688 1.5273-0.79688 2.7031v5.5156h-3.8125v-11.969h3.8125v1.9688c0.48828-0.78125 1.0508-1.3477 1.6875-1.7031 0.64453-0.36328 1.4102-0.54688 2.2969-0.54688 0.13281 0 0.27344 0.007812 0.42188 0.015625 0.14453 0.011719 0.36328 0.03125 0.65625 0.0625z"/>
  </symbol>
  <symbol id="a" overflow="visible">
   <path d="m13.781-6.0156v1.0938h-8.9375c0.09375 0.89844 0.41406 1.5703 0.96875 2.0156 0.55078 0.44922 1.3281 0.67188 2.3281 0.67188 0.80078 0 1.625-0.11719 2.4688-0.35938 0.84375-0.23828 1.7109-0.59766 2.6094-1.0781v2.9531c-0.90625 0.33594-1.8125 0.58984-2.7188 0.76562s-1.8125 0.26562-2.7188 0.26562c-2.1562 0-3.8398-0.54688-5.0469-1.6406-1.1992-1.1016-1.7969-2.6484-1.7969-4.6406 0-1.9453 0.58594-3.4766 1.7656-4.5938 1.1758-1.125 2.8008-1.6875 4.875-1.6875 1.875 0 3.375 0.57031 4.5 1.7031 1.1328 1.125 1.7031 2.6367 1.7031 4.5312zm-3.9375-1.2656c0-0.72656-0.21484-1.3125-0.64062-1.75-0.41797-0.44531-0.96875-0.67188-1.6562-0.67188-0.74219 0-1.3438 0.21094-1.8125 0.625-0.46094 0.41797-0.74609 1.0156-0.85938 1.7969z"/>
  </symbol>
  <symbol id="k" overflow="visible">
   <path d="m7.2031-5.3906c-0.80469 0-1.4062 0.13672-1.8125 0.40625-0.39844 0.27344-0.59375 0.67188-0.59375 1.2031 0 0.48047 0.16016 0.85938 0.48438 1.1406 0.32031 0.27344 0.77344 0.40625 1.3594 0.40625 0.71875 0 1.3203-0.25391 1.8125-0.76562 0.48828-0.51953 0.73438-1.1719 0.73438-1.9531v-0.4375zm5.8438-1.4375v6.8281h-3.8594v-1.7656c-0.51172 0.71875-1.0898 1.2461-1.7344 1.5781-0.63672 0.33203-1.418 0.5-2.3438 0.5-1.2422 0-2.2461-0.35938-3.0156-1.0781-0.77344-0.72656-1.1562-1.6719-1.1562-2.8281 0-1.3945 0.47656-2.4219 1.4375-3.0781 0.96875-0.65625 2.4883-0.98438 4.5625-0.98438h2.25v-0.29688c0-0.60156-0.24219-1.0469-0.71875-1.3281-0.48047-0.28125-1.2266-0.42188-2.2344-0.42188-0.8125 0-1.5742 0.085937-2.2812 0.25-0.71094 0.15625-1.3672 0.40234-1.9688 0.73438v-2.9219c0.82031-0.19531 1.6445-0.34766 2.4688-0.45312 0.82031-0.10156 1.6484-0.15625 2.4844-0.15625 2.1562 0 3.7109 0.42969 4.6719 1.2812 0.95703 0.84375 1.4375 2.2266 1.4375 4.1406z"/>
  </symbol>
  <symbol id="c" overflow="visible">
   <path d="m6.0156-15.359v3.3906h3.9375v2.7344h-3.9375v5.0781c0 0.55469 0.10938 0.92969 0.32812 1.125 0.21875 0.19922 0.65625 0.29688 1.3125 0.29688h1.9688v2.7344h-3.2812c-1.5117 0-2.5859-0.3125-3.2188-0.9375-0.625-0.63281-0.9375-1.707-0.9375-3.2188v-5.0781h-1.9062v-2.7344h1.9062v-3.3906z"/>
  </symbol>
  <symbol id="j" overflow="visible">
   <path d="m9.9688-10.219v-6.4062h3.8594v16.625h-3.8594v-1.7344c-0.52344 0.71094-1.1016 1.2305-1.7344 1.5625-0.63672 0.32031-1.3711 0.48438-2.2031 0.48438-1.4688 0-2.6797-0.58203-3.625-1.75-0.94922-1.1758-1.4219-2.6875-1.4219-4.5312s0.47266-3.3477 1.4219-4.5156c0.94531-1.1758 2.1562-1.7656 3.625-1.7656 0.83203 0 1.5664 0.16797 2.2031 0.5 0.63281 0.32422 1.2109 0.83594 1.7344 1.5312zm-2.5156 7.75c0.82031 0 1.4453-0.29688 1.875-0.89062 0.42578-0.60156 0.64062-1.4727 0.64062-2.6094 0-1.1445-0.21484-2.0156-0.64062-2.6094-0.42969-0.59375-1.0547-0.89062-1.875-0.89062-0.8125 0-1.4336 0.29688-1.8594 0.89062-0.42969 0.59375-0.64062 1.4648-0.64062 2.6094 0 1.1367 0.21094 2.0078 0.64062 2.6094 0.42578 0.59375 1.0469 0.89062 1.8594 0.89062z"/>
  </symbol>
  <symbol id="i" overflow="visible">
   <path d="m8.2031-2.4688c0.82031 0 1.4453-0.29688 1.875-0.89062 0.42578-0.60156 0.64062-1.4727 0.64062-2.6094 0-1.1445-0.21484-2.0156-0.64062-2.6094-0.42969-0.59375-1.0547-0.89062-1.875-0.89062-0.82422 0-1.4531 0.30469-1.8906 0.90625-0.4375 0.59375-0.65625 1.4609-0.65625 2.5938 0 1.1367 0.21875 2.0078 0.65625 2.6094 0.4375 0.59375 1.0664 0.89062 1.8906 0.89062zm-2.5469-7.75c0.53125-0.69531 1.1133-1.207 1.75-1.5312 0.64453-0.33203 1.3828-0.5 2.2188-0.5 1.4688 0 2.6758 0.58984 3.625 1.7656 0.94531 1.168 1.4219 2.6719 1.4219 4.5156s-0.47656 3.3555-1.4219 4.5312c-0.94922 1.168-2.1562 1.75-3.625 1.75-0.83594 0-1.5742-0.16797-2.2188-0.5-0.63672-0.33203-1.2188-0.84766-1.75-1.5469v1.7344h-3.8125v-16.625h3.8125z"/>
  </symbol>
  <symbol id="h" overflow="visible">
   <path d="m0.26562-11.969h3.8281l3.2188 8.125 2.7344-8.125h3.8125l-5.0312 13.094c-0.5 1.332-1.0898 2.2656-1.7656 2.7969-0.66797 0.53125-1.5547 0.79688-2.6562 0.79688h-2.2188v-2.5h1.2031c0.64453 0 1.1133-0.10547 1.4062-0.3125 0.30078-0.21094 0.53125-0.57812 0.6875-1.1094l0.10938-0.34375z"/>
  </symbol>
  <symbol id="g" overflow="visible">
   <path d="m0.10938-15.953h4.125l4.2344 11.781 4.2188-11.781h4.1406l-5.9062 15.953h-4.9062z"/>
  </symbol>
  <symbol id="t" overflow="visible">
   <path d="m1.8438-11.969h3.8125v11.969h-3.8125zm0-4.6562h3.8125v3.125h-3.8125z"/>
  </symbol>
  <symbol id="f" overflow="visible">
   <path d="m11.5-11.594v3.125c-0.52344-0.35156-1.043-0.61328-1.5625-0.78125-0.52344-0.17578-1.0625-0.26562-1.625-0.26562-1.0742 0-1.9062 0.3125-2.5 0.9375s-0.89062 1.4961-0.89062 2.6094c0 1.1172 0.29688 1.9844 0.89062 2.6094s1.4258 0.9375 2.5 0.9375c0.59375 0 1.1562-0.085937 1.6875-0.26562 0.53906-0.17578 1.0391-0.44141 1.5-0.79688v3.125c-0.59375 0.23047-1.1992 0.39453-1.8125 0.5-0.61719 0.11328-1.2344 0.17188-1.8594 0.17188-2.1562 0-3.8438-0.55078-5.0625-1.6562-1.2188-1.1133-1.8281-2.6562-1.8281-4.625s0.60938-3.5039 1.8281-4.6094c1.2188-1.1133 2.9062-1.6719 5.0625-1.6719 0.625 0 1.2383 0.058594 1.8438 0.17188 0.61328 0.10547 1.2227 0.26562 1.8281 0.48438z"/>
  </symbol>
  <symbol id="d" overflow="visible">
   <path d="m7.5312-9.5156c-0.84375 0-1.4922 0.30859-1.9375 0.92188-0.44922 0.60547-0.67188 1.4805-0.67188 2.625 0 1.1484 0.22266 2.0273 0.67188 2.6406 0.44531 0.60547 1.0938 0.90625 1.9375 0.90625 0.83203 0 1.4688-0.30078 1.9062-0.90625 0.44531-0.61328 0.67188-1.4922 0.67188-2.6406 0-1.1445-0.22656-2.0195-0.67188-2.625-0.4375-0.61328-1.0742-0.92188-1.9062-0.92188zm0-2.7344c2.0508 0 3.6562 0.55859 4.8125 1.6719 1.1641 1.1055 1.75 2.6406 1.75 4.6094s-0.58594 3.5117-1.75 4.625c-1.1562 1.1055-2.7617 1.6562-4.8125 1.6562-2.0625 0-3.6797-0.55078-4.8438-1.6562-1.168-1.1133-1.75-2.6562-1.75-4.625s0.58203-3.5039 1.75-4.6094c1.1641-1.1133 2.7812-1.6719 4.8438-1.6719z"/>
  </symbol>
  <symbol id="e" overflow="visible">
   <path d="m1.7031-4.6562v-7.3125h3.8438v1.2031c0 0.64844-0.007813 1.4609-0.015625 2.4375v1.9688c0 0.96094 0.023438 1.6523 0.078125 2.0781 0.050781 0.41797 0.13281 0.72656 0.25 0.92188 0.15625 0.25 0.35938 0.44531 0.60938 0.57812 0.25781 0.13672 0.55078 0.20312 0.875 0.20312 0.80078 0 1.4258-0.30469 1.875-0.92188 0.45703-0.61328 0.6875-1.4688 0.6875-2.5625v-5.9062h3.8281v11.969h-3.8281v-1.7344c-0.57422 0.69922-1.1836 1.2148-1.8281 1.5469-0.64844 0.33203-1.3555 0.5-2.125 0.5-1.3867 0-2.4453-0.42188-3.1719-1.2656-0.71875-0.85156-1.0781-2.0859-1.0781-3.7031z"/>
  </symbol>
  <symbol id="s" overflow="visible">
   <path d="m1.8438-16.625h3.8125v16.625h-3.8125z"/>
  </symbol>
  <symbol id="r" overflow="visible">
   <path d="m9.7031-16.625v2.5156h-2.1094c-0.54297 0-0.92188 0.10156-1.1406 0.29688-0.21094 0.19922-0.3125 0.53906-0.3125 1.0156v0.82812h3.2656v2.7344h-3.2656v9.2344h-3.8281v-9.2344h-1.8906v-2.7344h1.8906v-0.82812c0-1.3008 0.36328-2.2656 1.0938-2.8906 0.72656-0.625 1.8516-0.9375 3.375-0.9375z"/>
  </symbol>
  <symbol id="q" overflow="visible">
   <path d="m12.922-9.9688c0.48828-0.75 1.0625-1.3164 1.7188-1.7031 0.66406-0.38281 1.3984-0.57812 2.2031-0.57812 1.375 0 2.4219 0.42969 3.1406 1.2812 0.71875 0.84375 1.0781 2.0742 1.0781 3.6875v7.2812h-3.8438v-6.2344c0.007812-0.09375 0.015625-0.1875 0.015625-0.28125v-0.4375c0-0.84375-0.125-1.457-0.375-1.8438-0.25-0.38281-0.65234-0.57812-1.2031-0.57812-0.73047 0-1.293 0.30469-1.6875 0.90625-0.38672 0.59375-0.58984 1.4609-0.60938 2.5938v5.875h-3.8438v-6.2344c0-1.3203-0.11719-2.1758-0.34375-2.5625-0.23047-0.38281-0.63672-0.57812-1.2188-0.57812-0.73047 0-1.2969 0.30469-1.7031 0.90625-0.39844 0.60547-0.59375 1.4648-0.59375 2.5781v5.8906h-3.8438v-11.969h3.8438v1.75c0.46875-0.66406 1.0039-1.1719 1.6094-1.5156 0.61328-0.34375 1.2891-0.51562 2.0312-0.51562 0.82031 0 1.5508 0.19922 2.1875 0.59375 0.63281 0.39844 1.1133 0.96094 1.4375 1.6875z"/>
  </symbol>
  <symbol id="p" overflow="visible">
   <path d="m13.859-7.2812v7.2812h-3.8438v-5.5469c0-1.0508-0.027344-1.7695-0.078125-2.1562-0.042969-0.39453-0.12109-0.6875-0.23438-0.875-0.14844-0.25-0.35156-0.44141-0.60938-0.57812-0.25-0.14453-0.54297-0.21875-0.875-0.21875-0.79297 0-1.418 0.3125-1.875 0.9375-0.46094 0.61719-0.6875 1.4648-0.6875 2.5469v5.8906h-3.8125v-16.625h3.8125v6.4062c0.58203-0.69531 1.1953-1.207 1.8438-1.5312 0.64453-0.33203 1.3594-0.5 2.1406-0.5 1.3828 0 2.4297 0.42969 3.1406 1.2812 0.71875 0.84375 1.0781 2.0742 1.0781 3.6875z"/>
  </symbol>
  <symbol id="o" overflow="visible">
   <path d="m2.0156-15.953h4.5781l5.8125 10.938v-10.938h3.8906v15.953h-4.5938l-5.7969-10.938v10.938h-3.8906z"/>
  </symbol>
  <symbol id="n" overflow="visible">
   <path d="m13.859-7.2812v7.2812h-3.8438v-5.5781c0-1.0312-0.027344-1.7383-0.078125-2.125-0.042969-0.39453-0.12109-0.6875-0.23438-0.875-0.14844-0.25-0.35156-0.44141-0.60938-0.57812-0.25-0.14453-0.54297-0.21875-0.875-0.21875-0.79297 0-1.418 0.3125-1.875 0.9375-0.46094 0.61719-0.6875 1.4648-0.6875 2.5469v5.8906h-3.8125v-11.969h3.8125v1.75c0.58203-0.69531 1.1953-1.207 1.8438-1.5312 0.64453-0.33203 1.3594-0.5 2.1406-0.5 1.3828 0 2.4297 0.42969 3.1406 1.2812 0.71875 0.84375 1.0781 2.0742 1.0781 3.6875z"/>
  </symbol>
  <symbol id="m" overflow="visible">
   <path d="m2.0156-15.953h6.8125c2.0312 0 3.5859 0.45312 4.6719 1.3594 1.0938 0.89844 1.6406 2.1797 1.6406 3.8438 0 1.6797-0.54688 2.9688-1.6406 3.875-1.0859 0.89844-2.6406 1.3438-4.6719 1.3438h-2.7031v5.5312h-4.1094zm4.1094 2.9844v4.4531h2.2656c0.80078 0 1.4141-0.19141 1.8438-0.57812 0.4375-0.38281 0.65625-0.9375 0.65625-1.6562 0-0.70703-0.21875-1.2539-0.65625-1.6406-0.42969-0.38281-1.043-0.57812-1.8438-0.57812z"/>
  </symbol>
  <symbol id="l" overflow="visible">
   <path d="m1.8438-11.969h3.8125v11.75c0 1.6016-0.38672 2.8281-1.1562 3.6719-0.76172 0.84375-1.8711 1.2656-3.3281 1.2656h-1.8906v-2.5h0.65625c0.72656 0 1.2266-0.16797 1.5-0.5 0.26953-0.32422 0.40625-0.96875 0.40625-1.9375zm0-4.6562h3.8125v3.125h-3.8125z"/>
  </symbol>
 </defs>
 <g>
  <path d="m483.7 552.34h-154c-3.5117 0.003906-6.9102-1.2344-9.5977-3.4922-2.6914-2.2578-4.4961-5.3906-5.1016-8.8516-5.4375-31.102-12.18-53.547-17.594-58.578-9.1289-8.5-30.586-6.2344-47.812-4.4141-5.8047 0.61328-11.297 1.1914-16.188 1.3867-42.125 2.2539-44.766-25.078-47.188-51.449v0.003907c-0.61719-10.254-2.2188-20.422-4.7812-30.367-2.6641-9.6914-9.1914-17.859-18.055-22.598-7.0586-4.6523-15.059-9.9258-14.359-23.266 0.33594-6.4609 5.4219-12.094 11.863-19.219 9.9258-10.988 23.52-26.035 23.578-49.836 0.027344-6.168-0.61328-14.41-1.2344-22.379-0.5-6.4297-0.97266-12.504-1.1328-17.727-1.4102-45.121 18.875-86.098 57.145-115.36 1.1484-0.94141 2.6289-1.375 4.1016-1.2031s2.8125 0.93359 3.7148 2.1133c0.89844 1.1797 1.2812 2.6719 1.0586 4.1367-0.22266 1.4688-1.0312 2.7812-2.2422 3.6406-35.391 27.059-54.168 64.82-52.879 106.31 0.15625 4.9648 0.62109 10.914 1.1094 17.215 0.63281 8.1914 1.2891 16.656 1.2656 23.266-0.0625 28-15.918 45.523-26.402 57.129-4.375 4.8555-8.9219 9.875-9.0547 12.457-0.35547 6.8164 2.4688 8.957 9.457 13.562 11.02 6.1758 19.125 16.488 22.52 28.656 2.7695 10.617 4.5039 21.48 5.1797 32.434 2.4727 26.922 3.9844 43.195 35.797 41.527 4.6172-0.1875 9.9375-0.75 15.562-1.3438 20.457-2.1523 43.637-4.5898 56.41 7.2852 9.4766 8.8125 16.625 40.047 20.918 64.703 0.33594 1.9102 2 3.2969 3.9375 3.2891h154c1.2695 0.007813 2.4648-0.58594 3.2188-1.6055 0.76563-0.99609 1-2.2969 0.63672-3.5-5.1836-17.844-14.148-51.98-15.93-80.09-1.1016-17.355 3.9375-42.938 15.75-58.23 44.043-57.141 58.723-102.16 50.668-155.39-7.5508-49.926-29.902-87.887-66.434-112.82l-0.003907 0.003906c-2.1992-1.7969-2.6602-4.9766-1.0586-7.3242 1.6016-2.3438 4.7344-3.0742 7.207-1.6758 38.586 26.348 63.172 67.918 71.086 120.22 8.4531 55.762-7.3438 104.72-52.805 163.72-10.035 13.02-14.438 35.922-13.496 50.863 1.7188 27.059 10.465 60.312 15.523 77.73 1.3086 4.5117 0.41406 9.3789-2.4102 13.133-2.8242 3.7539-7.25 5.957-11.949 5.9531z"/>
  <path d="m220.14 405.45h-32.184c-3.0195 0-5.4688-2.4492-5.4688-5.4688s2.4492-5.4688 5.4688-5.4688h32.184c3.0195 0 5.4688 2.4492 5.4688 5.4688s-2.4492 5.4688-5.4688 5.4688z"/>
  <path d="m225.52 290.05c0 5.1914-4.2109 9.4062-9.4062 9.4062-5.1953 0-9.4062-4.2148-9.4062-9.4062 0-5.1953 4.2109-9.4062 9.4062-9.4062 5.1953 0 9.4062 4.2109 9.4062 9.4062"/>
  <path d="m336.56 79.695c-1.2109-0.03125-2.4258 0.054688-3.6211 0.26172l0.11719-5.0156v0.003906c0.058593-4.0117-1.4727-7.8789-4.2617-10.758-2.7891-2.8828-6.6055-4.543-10.613-4.6172l-8.4805-0.19531h0.003906c0.26172-1.1875 0.40625-2.3984 0.4375-3.6172 0.074219-6.5469-3.3203-12.641-8.9258-16.027-5.6055-3.3828-12.582-3.5469-18.34-0.43359s-9.4375 9.043-9.6719 15.586c-0.027344 1.2148 0.0625 2.4297 0.26953 3.625l-5.25-0.12109h-0.36328v-0.003907c-3.9766 0.007813-7.7969 1.5664-10.641 4.3438-2.8477 2.7773-4.4961 6.5586-4.5977 10.531l-1.0586 45.277c-0.09375 4.043 1.418 7.9531 4.207 10.879 2.7891 2.9258 6.6289 4.6211 10.668 4.7188l14.066 0.32422c2.2109 0.10938 4.2539-1.1719 5.1211-3.207 0.90234-2.0039 0.51562-4.3516-0.98047-5.9648-1.3359-1.4648-2.0547-3.3906-2.0039-5.375 0.054687-1.9922 0.89844-3.8828 2.3477-5.25 1.4531-1.3711 3.3867-2.1094 5.3789-2.0664 3.0312 0.078125 5.7227 1.9688 6.8242 4.793 1.1016 2.8242 0.40234 6.0352-1.7773 8.1445-1.582 1.5352-2.0898 3.8711-1.2852 5.9219 0.80469 2.0547 2.7656 3.4219 4.9688 3.4727l17.293 0.40234h0.35938c3.9492 0.019531 7.7539-1.5 10.598-4.2422 2.8438-2.7422 4.5078-6.4844 4.6328-10.434l0.11328-5.0078c5.3477 1.1758 10.945-0.074219 15.285-3.4141 4.3398-3.3398 6.9805-8.4297 7.2148-13.902 0.070312-4.8594-1.7891-9.5469-5.168-13.039-3.3828-3.4922-8.0078-5.5039-12.867-5.5938zm-0.41016 25.422h-0.1875c-1.9727-0.03125-3.8555-0.83203-5.25-2.2266-1.5469-1.5508-3.8711-2.0312-5.9062-1.2148-2.0312 0.8125-3.3867 2.7617-3.4336 4.9531l-0.31641 13.75c-0.17969 2.2852-2.1094 4.0352-4.4023 3.9883l-8.457-0.20313v0.003907c0.26172-1.1797 0.41016-2.3789 0.4375-3.5859 0.17578-6.5977-3.1836-12.785-8.8125-16.234-5.625-3.4492-12.664-3.6328-18.465-0.48438-5.8008 3.1484-9.4805 9.1523-9.6562 15.75-0.027344 1.2422 0.0625 2.4883 0.27344 3.7148l-5.25-0.12109v-0.003906c-1.1445-0.019531-2.2344-0.5-3.0273-1.3242-0.79297-0.82812-1.2227-1.9375-1.1953-3.0859l1.0547-45.25c0.054687-2.3398 1.9648-4.207 4.3047-4.207h0.097656l14.07 0.33203c2.2148 0.11719 4.2695-1.1758 5.1211-3.2266 0.90234-2.0078 0.50781-4.3594-0.99219-5.9688-1.3477-1.4375-2.0742-3.3477-2.0273-5.3164 0.14453-4.1406 3.5664-7.4062 7.7109-7.3594 3.0312 0.070313 5.7227 1.9531 6.832 4.7734 1.1094 2.8203 0.42188 6.0312-1.75 8.1484-1.5742 1.5391-2.0742 3.8711-1.2656 5.918 0.80469 2.0469 2.7578 3.4141 4.957 3.4648l17.293 0.40234h0.003906c2.3164 0 4.1953 1.8711 4.207 4.1875l-0.32813 13.754c-0.050781 2.1914 1.207 4.2031 3.2031 5.1094 1.9922 0.91016 4.3359 0.53906 5.9531-0.94141 1.457-1.3359 3.3789-2.0508 5.3555-1.9844 1.9648-0.046875 3.8633 0.71094 5.2578 2.0898 1.3984 1.3828 2.1758 3.2695 2.1562 5.2344-0.019532 1.9648-0.83984 3.8359-2.2656 5.1875-1.4258 1.3477-3.3398 2.0625-5.3008 1.9766z"/>
  <path d="m465.82 99.059c-0.050781-2.2031-1.418-4.1641-3.4727-4.9688-2.0508-0.80469-4.3867-0.29688-5.9219 1.2852-1.3672 1.418-3.2422 2.2383-5.2109 2.2891-2.0078 0.082032-3.9609-0.66797-5.3984-2.0703-3.0352-2.8594-3.1758-7.6406-0.31641-10.676 2.8633-3.0352 7.6406-3.1758 10.676-0.3125 1.6094 1.4922 3.9609 1.8789 5.9648 0.97656 2-0.89844 3.2734-2.9102 3.2227-5.1094l-0.29688-14.066c-0.097656-4.0391-1.7969-7.875-4.7227-10.664-2.9258-2.7891-6.8359-4.3047-10.879-4.2109l-45.25 1.0625v0.003906c-4.0391 0.10156-7.8711 1.8008-10.66 4.7227-2.7891 2.9219-4.3047 6.832-4.2148 10.867l0.13281 5.25c-1.1992-0.21094-2.4141-0.30078-3.6289-0.26953-4.9375 0.054687-9.6484 2.0859-13.078 5.6406-3.4297 3.5508-5.293 8.3281-5.1758 13.266 0.11719 4.9375 2.207 9.6211 5.8008 13.008s8.3945 5.1914 13.328 5.0156c1.2148-0.027344 2.4258-0.17578 3.6133-0.4375l0.15625 8.4648c0.078125 4.0117 1.7344 7.832 4.6133 10.633 2.8594 2.8281 6.75 4.3672 10.77 4.2539l5.0078-0.11719h0.003906c-0.20312 1.1992-0.29297 2.4141-0.26953 3.6289 0.097656 4.8633 2.1094 9.4922 5.5938 12.887 3.3555 3.3086 7.8789 5.1641 12.59 5.1602h0.4375c4.8633-0.10547 9.4727-2.1836 12.77-5.7539 3.3203-3.5508 5.1055-8.2656 4.9766-13.125-0.03125-1.2148-0.17578-2.4219-0.4375-3.6094l5.0156-0.11719h-0.003907c4.0195-0.089844 7.832-1.8047 10.562-4.7578 2.7383-2.9297 4.2148-6.8203 4.1055-10.832zm-11.691 20.664c-0.72656 0.79297-1.7461 1.2578-2.8203 1.2852l-13.75 0.32031h-0.003907c-2.1875 0.050781-4.1328 1.4023-4.9453 3.4336-0.81641 2.0352-0.33984 4.3555 1.2109 5.9023 2.8945 2.9414 2.9805 7.6367 0.19141 10.68-1.2969 1.4102-3.1094 2.2344-5.0273 2.2773-1.9062 0.003906-3.7461-0.72656-5.1289-2.043-2.9336-2.9062-3.0664-7.6016-0.30859-10.672 1.4609-1.6016 1.8398-3.9141 0.96484-5.8984-0.87109-1.9805-2.8359-3.2617-5.0039-3.2617h-0.13281l-13.75 0.32422h0.003906c-1.0703 0-2.1016-0.41016-2.875-1.1484-0.82422-0.80859-1.2969-1.9102-1.3125-3.0625l-0.40234-17.289v-0.003906c-0.046875-2.1992-1.4141-4.1602-3.4609-4.9648-2.0508-0.80859-4.3828-0.30469-5.918 1.2734-1.375 1.4102-3.25 2.2266-5.2227 2.2656-1.9883 0.003906-3.9023-0.73828-5.3711-2.0781-2.207-2.1016-2.9297-5.3242-1.8281-8.168 1.0977-2.8438 3.8008-4.7422 6.8477-4.8164 1.9648-0.023437 3.8711 0.69922 5.3242 2.0273 1.6094 1.4922 3.957 1.8789 5.9609 0.97656 2.0039-0.89844 3.2734-2.9102 3.2266-5.1094l-0.33594-14.062-0.003906 0.003906c-0.050781-2.3789 1.8281-4.3477 4.207-4.4062l45.254-1.0625c1.1328 0 2.2266 0.42578 3.0625 1.1875 0.82422 0.78906 1.2969 1.875 1.3125 3.0156l0.12109 5.2891c-5.1406-0.91406-10.434 0.39062-14.562 3.5938-4.1289 3.1992-6.707 8.0039-7.0977 13.215-0.38672 5.207 1.4453 10.34 5.0508 14.121 3.6055 3.7812 8.6445 5.8594 13.867 5.7188 1.207-0.027344 2.4102-0.17578 3.5898-0.4375l0.19141 8.4609c0.050781 1.1445-0.35547 2.2656-1.125 3.1133z"/>
  <path d="m349.56 6.125c-3.2383-2.7148-7.375-4.1211-11.598-3.9375-7.5586 0-17.418 3.3477-21.18 10.703-2.5039 5.0039-2.457 11.195 5.0234 28.316v-0.003906c1.707 3.9258 4.8633 7.0391 8.8125 8.6914 3.9492 1.6562 8.3828 1.7188 12.379 0.17578l3.0039-1.1367c3.1445-1.1914 5.8516-3.3086 7.7656-6.0703 1.918-2.7617 2.9492-6.043 2.9648-9.4023 0.10547-18.398-3.5625-24.156-7.1719-27.336zm-7.4375 32.582-3.0352 1.1562v-0.003906c-0.65625 0.25391-1.3516 0.38281-2.0547 0.38281-2.2578 0-4.3008-1.3438-5.1953-3.418-2.6953-6.1641-6.668-16.238-5.3125-18.949 2.9062-3.2188 7.1055-4.9609 11.438-4.75 1.5391-0.12109 3.0703 0.28516 4.3438 1.1602 3.0977 2.75 3.5 13.312 3.4727 19.164v-0.003907c-0.003906 2.3438-1.4609 4.4375-3.6562 5.2617z"/>
  <path d="m400.65 17.938c-2.3047-8.4258-12.25-12.188-18.547-12.188h0.003907c-2.6055-0.039062-5.1719 0.61328-7.4375 1.8984-4.7383 2.6641-7.1719 7.9023-9.1875 19.945-0.62109 3.6992 0.19922 7.4922 2.293 10.605 2.0938 3.1094 5.2969 5.3008 8.957 6.1211l2.1875 0.47266c2.8789 0.61719 5.8789 0.35938 8.6094-0.74219 2.7305-1.1055 5.0664-3.0039 6.7031-5.4492 6.043-9.2656 7.8711-15.219 6.418-20.664zm-15.488 14.582c-0.69531 1.043-1.8672 1.668-3.1211 1.668-0.26953-0.003906-0.53906-0.03125-0.80078-0.089844l-2.0781-0.4375c-1.9375-0.43359-3.1992-2.3008-2.8789-4.2617 0.72266-4.3438 2.1406-11.305 3.8555-12.25 0.60547-0.3125 1.2852-0.46094 1.9688-0.4375 3.0625 0 7.4375 2.0469 7.9805 4.0781 0.70312 2.6172-2.8516 8.5508-4.9258 11.746z"/>
  <use x="70" y="625.625" xlink:href="#u"/>
  <use x="86.054688" y="625.625" xlink:href="#b"/>
  <use x="96.839844" y="625.625" xlink:href="#a"/>
  <use x="111.679687" y="625.625" xlink:href="#k"/>
  <use x="126.4375" y="625.625" xlink:href="#c"/>
  <use x="136.894531" y="625.625" xlink:href="#a"/>
  <use x="151.730469" y="625.625" xlink:href="#j"/>
  <use x="175.007812" y="625.625" xlink:href="#i"/>
  <use x="190.664062" y="625.625" xlink:href="#h"/>
  <use x="212.539062" y="625.625" xlink:href="#g"/>
  <use x="229.46875" y="625.625" xlink:href="#t"/>
  <use x="236.96875" y="625.625" xlink:href="#f"/>
  <use x="249.933594" y="625.625" xlink:href="#c"/>
  <use x="260.390625" y="625.625" xlink:href="#d"/>
  <use x="275.421875" y="625.625" xlink:href="#b"/>
  <use x="286.207031" y="625.625" xlink:href="#e"/>
  <use x="301.78125" y="625.625" xlink:href="#s"/>
  <use x="309.277344" y="625.625" xlink:href="#a"/>
  <use x="324.117188" y="625.625" xlink:href="#b"/>
  <use x="70" y="647.5" xlink:href="#r"/>
  <use x="79.515625" y="647.5" xlink:href="#b"/>
  <use x="90.304688" y="647.5" xlink:href="#d"/>
  <use x="105.332031" y="647.5" xlink:href="#q"/>
  <use x="135.742188" y="647.5" xlink:href="#c"/>
  <use x="146.199219" y="647.5" xlink:href="#p"/>
  <use x="161.773438" y="647.5" xlink:href="#a"/>
  <use x="184.222656" y="647.5" xlink:href="#o"/>
  <use x="202.53125" y="647.5" xlink:href="#d"/>
  <use x="217.558594" y="647.5" xlink:href="#e"/>
  <use x="233.132812" y="647.5" xlink:href="#n"/>
  <use x="256.320312" y="647.5" xlink:href="#m"/>
  <use x="272.355469" y="647.5" xlink:href="#b"/>
  <use x="283.140625" y="647.5" xlink:href="#d"/>
  <use x="298.171875" y="647.5" xlink:href="#l"/>
  <use x="305.667969" y="647.5" xlink:href="#a"/>
  <use x="320.503906" y="647.5" xlink:href="#f"/>
  <use x="333.472656" y="647.5" xlink:href="#c"/>
 </g>
</svg>
